<svg width="485" height="485" xmlns="http://www.w3.org/2000/svg" xmlns:xlink="http://www.w3.org/1999/xlink" xml:space="preserve" overflow="hidden"><g transform="translate(-397 -117)"><path d="M601.235 451.302C609.491 449.132 616.862 445.799 623.279 441.254 629.645 436.749 634.811 430.911 638.605 423.708 642.363 416.595 644.245 408.134 644.245 398.309 644.245 386.187 641.364 375.849 635.479 367.208 629.623 358.625 620.793 352.59 608.866 349.163 617.625 345.021 624.178 339.686 628.639 333.183 633.065 326.67 635.278 318.522 635.278 308.769 635.278 299.752 633.798 292.125 630.844 286.035 627.819 279.853 623.595 274.945 618.199 271.255 612.717 267.566 606.228 264.875 598.627 263.262 590.982 261.606 582.619 260.804 573.35 260.804L482 260.804 482 454.563 575.915 454.563C584.595 454.564 593.074 453.472 601.235 451.302ZM524.665 293.809 564.578 293.809C568.35 293.809 572.036 294.078 575.55 294.765 579.128 295.379 582.211 296.518 584.941 298.167 587.693 299.751 589.87 302.014 591.515 304.906 593.104 307.798 593.894 311.524 593.894 316.032 593.894 324.151 591.515 330.072 586.608 333.653 581.651 337.292 575.392 339.085 567.834 339.085L524.666 339.085 524.666 293.809ZM524.665 421.563 524.665 368.207 571.044 368.207C580.227 368.207 587.692 370.319 593.289 374.565 598.879 378.873 601.688 385.961 601.688 395.948 601.688 401.042 600.862 405.26 599.138 408.507 597.421 411.783 595.057 414.359 592.204 416.238 589.351 418.192 585.967 419.514 582.152 420.348 578.394 421.189 574.399 421.562 570.189 421.562L524.665 421.562Z" fill="#0000FF"/><path d="M676.111 437.797C682.383 444.314 689.841 449.315 698.765 452.882 707.696 456.406 717.64 458.195 728.691 458.195 744.548 458.195 758.157 454.563 769.315 447.274 780.602 440.017 788.879 427.961 794.333 411.072L760.398 411.072C759.083 415.415 755.685 419.597 750.102 423.509 744.469 427.425 737.751 429.39 729.977 429.39 719.17 429.39 710.829 426.556 705.06 420.919 699.268 415.283 695.518 404.782 695.518 393.692L796.755 393.692C797.481 382.807 796.598 372.41 794.075 362.458 791.531 352.489 787.464 343.601 781.745 335.83 776.026 328.045 768.747 321.826 759.867 317.238 750.957 312.586 740.56 310.301 728.691 310.301 717.942 310.301 708.235 312.212 699.433 316.01 690.631 319.821 683.073 325.041 676.7 331.655 670.341 338.233 665.506 346.076 662.006 355.164 658.579 364.221 656.826 374.021 656.826 384.512 656.826 395.361 658.515 405.373 661.863 414.417 665.247 423.51 669.996 431.249 676.111 437.797ZM697.278 360.159C698.262 356.657 699.958 353.381 702.444 350.276 704.944 347.222 708.214 344.628 712.201 342.545 716.282 340.433 721.376 339.398 727.533 339.398 736.996 339.398 744.756 342.139 749.333 347.208 753.931 352.316 757.294 359.58 758.214 369.406L695.517 369.406C695.697 366.669 696.287 363.572 697.278 360.159Z" fill="#0000FF"/><path d="M687.636 273.802 766.176 273.802 766.176 292.922 687.636 292.922Z" fill="#0000FF"/><path d="M397 117 397 602 882 602 882 117 397 117ZM852 572 427 572 427 147 852 147 852 572Z" fill="#0000FF"/></g></svg>