<svg width="512" height="512" xmlns="http://www.w3.org/2000/svg" xmlns:xlink="http://www.w3.org/1999/xlink" xml:space="preserve" overflow="hidden"><defs><clipPath id="clip0"><rect x="384" y="104" width="512" height="512"/></clipPath></defs><g clip-path="url(#clip0)" transform="translate(-384 -104)"><path d="M886.285 263.704 652.285 107.704C644.298 102.789 635.774 102.744 627.714 107.704L393.714 263.704C387.714 267.703 384 274.847 384 281.989L384 437.988C384 445.131 387.714 452.274 393.715 456.274L627.715 612.296C635.702 617.211 644.226 617.256 652.286 612.296L886.286 456.274C892.286 452.275 896.001 445.131 896.001 437.988L896.001 281.989C896 274.847 892.286 267.703 886.285 263.704ZM662 167.131 834.286 281.989 757.429 333.418 662 269.703 662 167.131ZM618 167.131 618 269.703 522.571 333.418 445.714 281.989 618 167.131ZM428 323.132 483.143 359.989 428 396.846 428 323.132ZM618 552.847 445.714 437.989 522.571 386.56 618 450.275 618 552.847ZM640 411.989 562.285 359.989 640 307.989 717.715 359.989 640 411.989ZM662 552.847 662 450.275 757.429 386.56 834.286 437.989 662 552.847ZM852 396.846 796.857 359.989 852 323.132 852 396.846Z" fill="#0000FF"/></g></svg>