<svg width="512" height="512" xmlns="http://www.w3.org/2000/svg" xmlns:xlink="http://www.w3.org/1999/xlink" xml:space="preserve" overflow="hidden"><g transform="translate(-384 -104)"><path d="M888 360C888 223 777 112 640 112 503 112 392 223 392 360 392 483.78 482.69 586.38 601.25 605L601.25 431.69 538.25 431.69 538.25 360 601.25 360 601.25 305.36C601.25 243.21 638.25 208.88 694.92 208.88 722.06 208.88 750.44 213.72 750.44 213.72L750.44 274.72 719.16 274.72C688.36 274.72 678.75 293.84 678.75 313.45L678.75 360 747.53 360 736.53 431.69 678.75 431.69 678.75 605C797.31 586.38 888 483.78 888 360Z" fill="#0000FF"/></g></svg>