<svg width="576" height="512" xmlns="http://www.w3.org/2000/svg" xmlns:xlink="http://www.w3.org/1999/xlink" xml:space="preserve" overflow="hidden"><g transform="translate(-352 -104)"><path d="M927.8 359.5C927.8 377.5 912.8 391.6 895.8 391.6L863.8 391.6 864.5 551.8C864.5 554.5 864.3 557.2 864 559.9L864 576C864 598.1 846.1 616 824 616L808 616C806.9 616 805.8 616 804.7 615.9 803.3 616 801.9 616 800.5 616L768 616 744 616C721.9 616 704 598.1 704 576L704 552 704 488C704 470.3 689.7 456 672 456L608 456C590.3 456 576 470.3 576 488L576 552 576 576C576 598.1 558.1 616 536 616L512 616 480.1 616C478.6 616 477.1 615.9 475.6 615.8 474.4 615.9 473.2 616 472 616L456 616C433.9 616 416 598.1 416 576L416 464C416 463.1 416 462.1 416.1 461.2L416.1 391.6 384 391.6C366 391.6 352 377.6 352 359.5 352 350.5 355 342.5 362 335.5L618.4 112C625.4 105 633.4 104 640.4 104 647.4 104 655.4 106 661.4 111L916.8 335.5C924.8 342.5 928.8 350.5 927.8 359.5Z" fill="#551A8B"/></g></svg>