<svg width="448" height="512" xmlns="http://www.w3.org/2000/svg" xmlns:xlink="http://www.w3.org/1999/xlink" xml:space="preserve" overflow="hidden"><g transform="translate(-416 -104)"><path d="M832 136 447.9 136C430.3 136 416 150.5 416 168.3L416 551.7C416 569.5 430.3 584 447.9 584L832 584C849.6 584 864 569.5 864 551.7L864 168.3C864 150.5 849.6 136 832 136ZM551.4 520 485 520 485 306.2 551.5 306.2 551.5 520ZM518.2 277C496.9 277 479.7 259.7 479.7 238.5 479.7 217.3 496.9 200 518.2 200 539.4 200 556.7 217.3 556.7 238.5 556.7 259.8 539.5 277 518.2 277ZM800.3 520 733.9 520 733.9 416C733.9 391.2 733.4 359.3 699.4 359.3 664.8 359.3 659.5 386.3 659.5 414.2L659.5 520 593.1 520 593.1 306.2 656.8 306.2 656.8 335.4 657.7 335.4C666.6 318.6 688.3 300.9 720.6 300.9 787.8 300.9 800.3 345.2 800.3 402.8L800.3 520Z" fill="#0000FF"/></g></svg>